<svg height="15" viewBox="0 0 15 15" width="15" xmlns="http://www.w3.org/2000/svg"><path d="m9.5 7c-.414-.2348-.8891-.5959-1.3152-.9476l-2.1743-2.831c-.1901-.2485-.5461-.2944-.7878-.1042-.125.0968-.1965.2364-.213.3828h-.0097v1.5h-1.7913c-.1336 0-.2618-.0531-.3563-.1476 0 0-.3524-.8524-.8524-.8524s-.5003 0-.5003 0c-.2759 0-.4997.2237-.4997.4997v1.7503.634 2.116h5.5c1.5 0 2 1 3.5 1s4 0 4 0v-.5c0-1.5-3.4531-1.9062-4.5-2.5z"/><path d="m9.5 11c-.6318 0-1.0469-.207-1.5264-.4473-.518-.2588-1.1054-.5527-1.9736-.5527h-4.4996-.5004v1.4996c0 .2763.224.5004.5004.5004h3.9993c.2763 0 .5003-.2241.5003-.5004v-.4996c.6318 0 1.0464.207 1.5264.4473.5185.2588 1.1054.5527 1.9736.5527h4c.2764 0 .5-.2236.5-.5v-.5z"/></svg>